{"title":"Klaas.Van.Den.Eerden.MIX.DVDRIP.XVID-MisterDeee","uid":6126706,"size":669920948,"categoryP":"video","categoryS":"tv_shows","magnet":"?xt=urn:btih:46de9f90345a95bebe4df26e60e0480d259c8ce0&amp;dn=Klaas.Van.Den.Eerden.MIX.DVDRIP.XVID-MisterDeee&amp;tr=udp%3A%2F%2Ftracker.openbittorrent.com%3A80&amp;tr=udp%3A%2F%2Fopen.demonii.com%3A1337&amp;tr=udp%3A%2F%2Ftracker.coppersurfer.tk%3A6969&amp;tr=udp%3A%2F%2Fexodus.desync.com%3A6969","seeders":0,"leechers":1,"uploader":"MisterDeee","files":-1,"time":1295964034,"description":"Na het grote succes van &quot;Extreem!&quot; is &quot;Mix&quot; het tweede cabaret programma van Klaas van der Eerden. Ook dit is een aaneenschakeling van muziek, stand-up en typetjes\n\nGeneral\nFormat                           : AVI\nFormat/Info                      : Audio Video Interleave\nFile size                        : 639 MiB\nDuration                         : 1h 3mn\nOverall bit rate                 : 1 397 Kbps\n\nVideo\nID                               : 0\nFormat                           : MPEG-4 Visual\nFormat profile                   : Simple@L3\nFormat settings, BVOP            : No\nFormat settings, QPel            : No\nFormat settings, GMC             : No warppoints\nFormat settings, Matrix          : Default (H.263)\nCodec ID                         : XVID\nCodec ID/Hint                    : XviD\nDuration                         : 1h 3mn\nBit rate                         : 1 199 Kbps\nWidth                            : 672 pixels\nHeight                           : 368 pixels\nDisplay aspect ratio             : 16:9\nFrame rate                       : 30.000 fps\nColor space                      : YUV\nChroma subsampling               : 4:2:0\nBit depth                        : 8 bits\nScan type                        : Progressive\nBits/(Pixel*Frame)               : 0.162\nStream size                      : 548 MiB (86%)\nWriting library                  : XviD 1.1.2 (UTC 2006-11-01)\n\nAudio\nID                               : 1\nFormat                           : AC-3\nFormat/Info                      : Audio Coding 3\nMode extension                   : CM (complete main)\nCodec ID                         : 2000\nDuration                         : 1h 3mn\nBit rate mode                    : Constant\nBit rate                         : 192 Kbps\nChannel(s)                       : 2 channels\nChannel positions                : Front: L R\nSampling rate                    : 48.0 KHz\nBit depth                        : 16 bits\nStream size                      : 87.8 MiB (14%)\nAlignment                        : Split accross interleaves\nInterleave, duration             : 500 ms (15.00 video frames)\nInterleave, preload duration     : 500 ms\n\nLeave your comment about Audio/Video/Comment","torrent":{"xt":"urn:btih:46de9f90345a95bebe4df26e60e0480d259c8ce0","amp;dn":"Klaas.Van.Den.Eerden.MIX.DVDRIP.XVID-MisterDeee","amp;tr":["udp%3A%2F%2Ftracker.openbittorrent.com%3A80","udp%3A%2F%2Fopen.demonii.com%3A1337","udp%3A%2F%2Ftracker.coppersurfer.tk%3A6969","udp%3A%2F%2Fexodus.desync.com%3A6969"],"infoHash":"46de9f90345a95bebe4df26e60e0480d259c8ce0","infoHashBuffer":{"type":"Buffer","data":[70,222,159,144,52,90,149,190,190,77,242,110,96,224,72,13,37,156,140,224]},"announce":[],"urlList":[]}}